<svg id="visual" viewBox="0 0 900 600" width="900" height="600" xmlns="http://www.w3.org/2000/svg" xmlns:xlink="http://www.w3.org/1999/xlink" version="1.1"><rect x="0" y="0" width="900" height="600" fill="#333"></rect><path d="M0 332L21.5 340.3C43 348.7 86 365.3 128.8 368.8C171.7 372.3 214.3 362.7 257.2 334.3C300 306 343 259 385.8 254.3C428.7 249.7 471.3 287.3 514.2 316.7C557 346 600 367 642.8 374.7C685.7 382.3 728.3 376.7 771.2 345.5C814 314.3 857 257.7 878.5 229.3L900 201L900 601L878.5 601C857 601 814 601 771.2 601C728.3 601 685.7 601 642.8 601C600 601 557 601 514.2 601C471.3 601 428.7 601 385.8 601C343 601 300 601 257.2 601C214.3 601 171.7 601 128.8 601C86 601 43 601 21.5 601L0 601Z" fill="#444343" stroke-linecap="round" stroke-linejoin="miter"></path></svg>